<?xml version="1.0" encoding="utf-8"?>
<!-- Generator: Adobe Illustrator 23.0.1, SVG Export Plug-In . SVG Version: 6.00 Build 0)  -->
<svg version="1.1" id="Ebene_1" xmlns="http://www.w3.org/2000/svg" xmlns:xlink="http://www.w3.org/1999/xlink" x="0px" y="0px"
	 viewBox="0 0 300 300" style="enable-background:new 0 0 300 300;" xml:space="preserve">
<style type="text/css">
	.st0{fill:#FF52E5;}
	.st1{fill:#FFFFFF;}
	.st2{fill:#F7BC45;}
	.st3{fill:none;stroke:#FFFFFF;stroke-width:3;stroke-miterlimit:10;}
	.st4{opacity:0.44;fill:none;stroke:#FFFFFF;stroke-width:3;stroke-miterlimit:10;enable-background:new    ;}
	.st5{fill:#64D754;}
	.st6{fill:#64D754;stroke:#FFFFFF;stroke-width:3;stroke-linecap:round;stroke-miterlimit:10;}
	.st7{fill:#0000FF;}
	.st8{fill:#00FF00;}
	.st9{fill:#FFFF00;}
	.st10{fill:#00FFFF;}
	.st11{fill:#ED1C24;}
	.st12{fill:#F9F0FC;}
	.st13{clip-path:url(#SVGID_2_);}
	.st14{fill:#F4AEB3;}
	.st15{fill:#DE7D7E;}
	.st16{fill:#491309;}
	.st17{fill:#F0766B;}
	.st18{fill:#ED635D;}
	.st19{fill:none;stroke:#000000;stroke-width:0.5;stroke-miterlimit:10;}
</style>
<title>Element 20</title>
<g>
	<g>
		<g id="Ebene_1-2">
			<path class="st0" d="M68.2,72.1h163.6c7.2,0,13,5.8,13,13v49.5c0,51.6-41.8,93.4-93.4,93.4l0,0c-53.2,0-96.2-43.1-96.2-96.2V85.1
				C55.2,77.9,61,72.1,68.2,72.1z"/>
			<circle class="st1" cx="100.5" cy="118.6" r="30.5"/>
			
				<image style="overflow:visible;opacity:0.2;enable-background:new    ;" width="102" height="116" xlink:href="E2D4A7B23AC0101B.png"  transform="matrix(0.9902 0 0 0.9902 104.36 85.7036)">
			</image>
			
				<rect x="106.7" y="103.4" transform="matrix(0.1075 -0.9942 0.9942 0.1075 -4.2293 276.0811)" class="st2" width="89.9" height="74"/>
			<line class="st3" x1="133.5" y1="116.3" x2="174.7" y2="120.8"/>
			<line class="st3" x1="132.2" y1="127.2" x2="173.4" y2="131.7"/>
			<line class="st4" x1="131" y1="138.2" x2="172.3" y2="142.6"/>
			
				<image style="overflow:visible;opacity:0.2;enable-background:new    ;" width="59" height="59" xlink:href="E2D4A7B23AC01019.png"  transform="matrix(0.9831 0 0 0.9831 148.36 151.635)">
			</image>
			<circle class="st5" cx="174.4" cy="177.8" r="20.2"/>
			<path class="st6" d="M163.8,177.8l4,9.1c0,0,13.4-12.4,17.9-13.9"/>
			
				<image style="overflow:visible;opacity:0.2;enable-background:new    ;" width="23" height="24" xlink:href="E2D4A7B23AC0101F.png"  transform="matrix(0.9565 0 0 0.9565 187.36 191.6567)">
			</image>
			<polygon class="st7" points="193.7,202.7 193.7,198.2 197.8,200.5 			"/>
			
				<image style="overflow:visible;opacity:0.2;enable-background:new    ;" width="24" height="24" xlink:href="E2D4A7B23AC01018.png"  transform="matrix(0.9583 0 0 0.9583 215.36 158.635)">
			</image>
			<polygon class="st8" points="221.5,167.9 225.4,164.5 226.5,169.8 			"/>
			
				<image style="overflow:visible;opacity:0.2;enable-background:new    ;" width="25" height="25" xlink:href="E2D4A7B23AC01016.png"  transform="matrix(0.96 0 0 0.96 190.36 161.635)">
			</image>
			<polygon class="st9" points="200.7,174.1 196.4,169.7 202.5,168 			"/>
			
				<image style="overflow:visible;opacity:0.2;enable-background:new    ;" width="25" height="24" xlink:href="E2D4A7B23AC01017.png"  transform="matrix(0.9583 0 0 0.9583 198.3808 147.635)">
			</image>
			<polygon class="st7" points="204.8,158.7 207.1,154 210.2,158.4 			"/>
			
				<image style="overflow:visible;opacity:0.2;enable-background:new    ;" width="25" height="25" xlink:href="E2D4A7B23AC01027.png"  transform="matrix(0.96 0 0 0.96 198.36 178.635)">
			</image>
			<polygon class="st10" points="206.3,190.4 204.2,184.7 210.5,185.7 			"/>
			
				<image style="overflow:visible;opacity:0.2;enable-background:new    ;" width="25" height="25" xlink:href="E2D4A7B23AC01029.png"  transform="matrix(0.96 0 0 0.96 143.36 189.635)">
			</image>
			<polygon class="st11" points="150,201.8 150.3,195.7 155.7,199 			"/>
			
				<image style="overflow:visible;opacity:0.2;enable-background:new    ;" width="24" height="23" xlink:href="E2D4A7B23AC0102B.png"  transform="matrix(0.9565 0 0 0.9565 113.3817 200.635)">
			</image>
			<polygon class="st9" points="124.4,210.7 119.7,210.8 121.9,206.5 			"/>
			
				<image style="overflow:visible;opacity:0.2;enable-background:new    ;" width="24" height="23" xlink:href="C8BC3CC27DC253F8.png"  transform="matrix(0.9565 0 0 0.9565 92.3817 192.635)">
			</image>
			<polygon class="st7" points="100,203.1 98.3,198.8 103.2,199.5 			"/>
			
				<image style="overflow:visible;opacity:0.2;enable-background:new    ;" width="24" height="25" xlink:href="C8BC3CC27DC253FF.png"  transform="matrix(0.9583 0 0 0.9583 152.36 198.6558)">
			</image>
			<polygon class="st10" points="163.8,210.8 158.2,208.4 163.3,204.5 			"/>
			<path class="st12" d="M100.8,88.1v61c16.9,0,30.5-13.7,30.5-30.5S117.6,88,100.8,88.1L100.8,88.1z"/>
			<g>
				<defs>
					<circle id="SVGID_1_" cx="100.5" cy="118.6" r="30.5"/>
				</defs>
				<clipPath id="SVGID_2_">
					<use xlink:href="#SVGID_1_"  style="overflow:visible;"/>
				</clipPath>
				<g class="st13">
					<path class="st14" d="M100.3,129.4L100.3,129.4c4.4,0,8,3.6,8,8v7.9c0,4.4-3.6,8-8,8l0,0c-4.4,0-8-3.6-8-8v-7.9
						C92.3,132.9,95.9,129.4,100.3,129.4z"/>
					<path class="st15" d="M100.3,128.9c-4.4,0-8,3.6-8,8v5.3c2,1.9,4.7,2.9,7.4,2.9h1.8c2.4,0,4.8-0.8,6.8-2.3v-5.9
						C108.3,132.5,104.8,128.9,100.3,128.9C100.3,128.9,100.3,128.9,100.3,128.9z"/>
					<path class="st14" d="M117.7,120.3v-16.1H82.3v18.7c-0.1,0.9-0.2,1.8-0.2,2.7c0,10.1,8.2,18.2,18.2,18.2s18.2-8.2,18.2-18.2
						C118.5,123.7,118.3,122,117.7,120.3z"/>
					<path class="st16" d="M109.9,120.1c0.1-0.3,0.1-0.5,0.2-0.8c0-1.3-1-2.3-2.3-2.3c-1.3,0-2.3,1-2.3,2.3c0,0.3,0.1,0.5,0.2,0.8
						H109.9z"/>
					<path class="st16" d="M94.2,120.1c0.1-0.3,0.1-0.5,0.2-0.8c0-1.3-1-2.3-2.3-2.3s-2.3,1-2.3,2.3l0,0c0,0.3,0.1,0.5,0.2,0.8H94.2
						z"/>
					<path class="st17" d="M98.4,121.2h3.8c1,0,1.7,0.8,1.7,1.7l0,0c0,1-0.8,1.7-1.7,1.7h-3.8c-1,0-1.7-0.8-1.7-1.7l0,0
						C96.6,122,97.4,121.2,98.4,121.2z"/>
					<path class="st1" d="M100.2,136.5c4.2,0,7.6-3.8,7.6-8.6H92.5C92.5,132.6,95.9,136.5,100.2,136.5z"/>
					<path class="st18" d="M86.4,121.2h2.8c1.4,0,2.6,1.2,2.6,2.6v0.6c0,1.4-1.2,2.6-2.6,2.6h-2.8c-1.4,0-2.6-1.2-2.6-2.6v-0.6
						C83.8,122.3,85,121.2,86.4,121.2z"/>
					<path class="st18" d="M109.6,121.2h2.8c1.4,0,2.6,1.2,2.6,2.6v0.6c0,1.4-1.2,2.6-2.6,2.6h-2.8c-1.4,0-2.6-1.2-2.6-2.6v-0.6
						C107,122.3,108.1,121.2,109.6,121.2z"/>
					<path class="st16" d="M83.6,116.7l1.1-7.8c0,0,13.2,9.4,24.5,6.2l-3.4-10.5c0,0,4.3,13.4,11.7,12.2c0,0-6.2,10.3-5.8,20.5
						c0.4,10.1,11.2,13.3,11.2,13.3l-2.2-6.4l5.9,2.2c0,0-3.9-5.4-3.7-8.8s7-25.9-2.2-36.4S106.1,87.8,92.5,91s-13.6,22.3-13.6,22.3
						l0.8,4.8L83.6,116.7z"/>
				</g>
			</g>
		</g>
	</g>
</g>
<rect class="st19" width="300" height="300"/>
</svg>
