<svg id="Red_Logo" data-name="Red Logo" xmlns="http://www.w3.org/2000/svg" xmlns:xlink="http://www.w3.org/1999/xlink" viewBox="0 0 168.4 147.78">
  <defs>
    <style>
      .cls-1, .cls-3, .cls-4 {
        fill: none;
      }

      .cls-2 {
        clip-path: url(#clip-path);
      }

      .cls-3, .cls-4 {
        stroke: #eb5d5a;
      }

      .cls-3 {
        stroke-linecap: round;
        stroke-linejoin: round;
        stroke-width: 3px;
      }

      .cls-4 {
        stroke-miterlimit: 10;
        stroke-width: 4px;
      }
    </style>
    <clipPath id="clip-path" transform="translate(-228.56 -229.65)">
      <rect class="cls-1" x="277.44" y="247.39" width="61.72" height="75.7"/>
    </clipPath>
  </defs>
  <title>Anck-logo-red</title>
  <g class="cls-2">
    <line class="cls-3" x1="50.53" y1="50.24" x2="65.95" y2="19.39"/>
  </g>
  <line class="cls-3" x1="69.91" y1="27.96" x2="78.11" y2="50.24"/>
  <g class="cls-2">
    <line class="cls-3" x1="89.32" y1="19.39" x2="89.32" y2="50.23"/>
    <polyline class="cls-3" points="108.96 19.39 108.96 50.23 97.74 34.81"/>
    <path class="cls-3" d="M305.68,289.1a13.38,13.38,0,0,0-7.65-2.44c-8.23,0-14.89,7.69-14.89,17.17S289.8,321,298,321a14.08,14.08,0,0,0,11.15-5.79" transform="translate(-228.56 -229.65)"/>
    <polyline class="cls-3" points="108.96 57.01 88.86 74.4 108.96 91.79"/>
  </g>
  <polygon class="cls-4" points="38.46 2 126.48 2 165.79 49.25 84.98 144.71 2.57 49.25 38.46 2"/>
</svg>
